<svg class="icon" xmlns="http://www.w3.org/2000/svg" width="193" height="97"><path fill="#FEFEFE" fill-rule="evenodd" d="M61.817 85.014c.294-.008 1.48-.253 1.42.283-.05.469-.923.325-1.22.507-.398.24-.395.79-.395 1.192v5.255c0 .877-.037 1.81.427 2.594.783 1.329 2.826 1.358 4.128.92 1.54-.518 1.952-2.054 1.962-3.531.003-.602 0-1.226 0-1.833v-2.834c0-.19.003-.38 0-.571-.002-.317.015-.723-.188-.999-.152-.207-.402-.286-.644-.333-.242-.048-.68.02-.775-.284-.136-.444.477-.416.74-.398.823.046 1.635.056 2.46.001.2-.014.603-.042.7.17a.284.284 0 0 1 .015.177c-.055.272-.43.311-.652.34-.3.035-.604.047-.79.327-.185.282-.17.688-.173.999v4.544c0 1.012-.027 2.048-.378 3.011-.42 1.142-1.309 1.864-2.474 2.153-1.64.408-3.85.422-5.216-.736-.707-.597-1.022-1.477-1.085-2.38-.025-.328-.016-.658-.016-.984V87.53c0-.34.017-.686-.021-1.022-.052-.442-.272-.71-.7-.817-.264-.065-.81.011-.897-.332-.112-.41.434-.392.69-.378a33.301 33.301 0 0 0 3.082.033Zm-9.81-43.471v17.09c.009 15.692-6.435 25.332-12.888 30.944-6.449 5.623-12.866 7.29-12.938 7.308l-.21.054-.203-.054c-.074-.019-6.473-1.685-12.906-7.308C6.429 83.965-.001 74.325.01 58.634V41.543h51.997Zm94.068 43.172c.516-.048 1.036 0 1.528.156.5.158.917.438 1.376.673.05-.193.123-.44.269-.586.15-.151.36-.154.471.043.11.196.069.448.052.661-.042.612.02 1.225.014 1.836 0 .194.006.453-.188.562-.22.122-.37-.058-.45-.246-.205-.486-.325-.997-.647-1.428-.573-.762-1.562-1.11-2.491-.926-.812.162-1.497.856-1.495 1.714.002 1.054 1.012 1.537 1.84 1.915 1.014.467 2.09.88 2.951 1.613.115.097.222.2.32.304a3.39 3.39 0 0 1 .914 2.436 3.356 3.356 0 0 1-1.225 2.53c-.81.671-1.882.97-2.919.968-.528 0-1.05-.087-1.546-.27-.495-.182-.925-.46-1.383-.71-.114.174-.197.468-.41.545-.325.115-.392-.302-.37-.521a12.647 12.647 0 0 0 .04-2.42c-.017-.192-.05-.468.132-.6.49-.356.612.798.683 1.024.158.505.425.986.8 1.366.704.718 1.765.978 2.737.766.849-.188 1.487-.83 1.628-1.697.143-.9-.262-1.684-.992-2.196-.768-.537-1.685-.793-2.519-1.198-.912-.442-1.688-1.109-2.013-2.097-.305-.927-.204-1.992.34-2.81.573-.853 1.554-1.314 2.553-1.407Zm-62.887.221.1.004c.142.008.285.019.427.031.37.026.744.047 1.113.047a16.03 16.03 0 0 0 1.214-.047c.098-.003.2-.003.298.017.062.014.112.04.15.089a.302.302 0 0 1 .064.29c-.073.237-.497.27-.697.306-.018.004-.303.104-.303.104a.84.84 0 0 0-.456.51c-.074.229-.09.509-.093.93v9.181a.7.7 0 0 1-.031.229c-.124.336-.584.277-.78.06a8.388 8.388 0 0 1-.347-.398l-7.217-8.997v6.958c.002.434.02.737.114.995.094.262.293.447.538.568.207.101.446.114.665.176.406.115.265.566-.081.64-.193.04-.397.004-.59-.01a17.697 17.697 0 0 0-1.075-.034c-.31 0-.62.018-.929.034-.252.012-.746.086-.909-.174-.177-.286.152-.46.386-.501l.306-.058.022-.003.276-.106a.88.88 0 0 0 .46-.547c.073-.244.091-.546.091-.996v-7.78l-.042-.063a1.69 1.69 0 0 0-.64-.58c-.216-.107-.462-.146-.698-.184-.223-.032-.431-.143-.369-.398.045-.186.2-.252.379-.267.181-.016.368-.002.544.009.28.017.556.047.835.047.354-.002.676-.035.961-.035.284.007.477.092.661.33l6.728 8.436v-6.55c-.001-.548-.062-.943-.287-1.234a.97.97 0 0 0-.514-.324c-.212-.057-.473 0-.67-.126-.206-.135-.127-.47.093-.542a1.1 1.1 0 0 1 .404-.033Zm16.583.04c.336-.034.699.047 1.037.062a28.192 28.192 0 0 0 3.126-.044c.135-.009.31-.037.436.027.316.163.12.563-.155.62-.294.063-.65-.023-.88.22-.261.27-.095.712.004 1.019.117.367.252.742.377 1.1l.29.798c.19.53.38 1.057.573 1.586.22.607.436 1.214.657 1.819.18.502.361 1.005.545 1.506l.223.623c.003-.009.005-.026.011-.03.043-.029.074-.186.093-.233l.17-.426c.172-.426.344-.852.511-1.28l.629-1.574.607-1.545c.157-.395.312-.789.46-1.185.173-.456.34-.92.443-1.396.101-.458-.023-.846-.507-.956-.222-.048-.496-.034-.694-.156a.281.281 0 0 1-.02-.466c.197-.153.527-.069.757-.05.453.036.91.056 1.366.046.27-.006.537-.02.804-.042.21-.017.47-.082.678-.017.017.007.036.013.051.02.342.153.118.53-.149.606-.239.067-.467.079-.681.222-.193.13-.332.327-.45.524-.255.419-.441.889-.627 1.335l-.357.893-.354.884-.355.886-.817 2.041-.683 1.699c-.096.24-.189.482-.287.72-.166.415-.34.845-.532 1.252-.113.244-.242.526-.461.692-.324.248-.588-.09-.733-.367-.18-.342-.291-.723-.428-1.08-.147-.388-.292-.777-.44-1.164l-.892-2.35c-.59-1.556-1.187-3.109-1.767-4.67-.215-.57-.404-1.282-1.074-1.416-.24-.05-.697-.044-.824-.302-.134-.261.08-.425.32-.451Zm33.34-.06c1.423-.003 2.516.226 3.22.703 1.045.711 1.28 2.131.961 3.295-.324 1.184-1.393 1.826-2.531 2.081l-.315.07 3.458 4.059c.347.406.754.612 1.075.754.13.058.269.103.395.173.16.088.311.347.162.515-.17.19-.56.091-.779.076a12.859 12.859 0 0 0-.849-.025l-.791.015c-.366-.006-.56-.004-.818-.31l-3.644-4.588a.778.778 0 0 0-.7-.336l-.238-.005v3.127c.002.39.014.635.084.843a.707.707 0 0 0 .4.43c.218.1.459.11.693.155.084.016.185.006.262.051.242.145.191.56-.082.627-.194.047-.42.014-.615.002-.208-.014-.417-.034-.625-.042-.368-.016-.736-.02-1.1-.02a24.11 24.11 0 0 0-1.112.02c-.178.008-.357.014-.53.028-.179.012-.357.043-.537.032-.153-.01-.36-.065-.418-.228-.051-.151.04-.328.175-.4.107-.06.229-.072.348-.086.386-.043.86-.146 1.001-.569.07-.208.08-.453.084-.843v-7.524c-.003-.38-.019-.62-.089-.825-.105-.322-.397-.437-.7-.496-.11-.023-.22-.036-.327-.05-.138-.018-.313-.037-.422-.132-.101-.093-.101-.311.001-.407a.417.417 0 0 1 .204-.088c.184-.035.378-.02.565-.014.3.011.605.016.91.016 1.211 0 2.291-.084 3.224-.084Zm45.982.254c.178-.355.77-.225 1.075-.197 1.063.1 2.131-.03 3.196-.032.197 0 .46-.035.597.139.115.152.07.348-.084.451-.312.212-.77-.01-1.024.352-.234.33.019.782.182 1.088.24.448.468.898.703 1.35l.763 1.482c.252.485.469 1.017.765 1.471.19-.255.34-.558.506-.832.668-1.097 1.358-2.187 1.942-3.33.166-.329.475-.973.092-1.268-.258-.2-.676-.089-.905-.32-.326-.323.166-.522.422-.54.501-.036 1.015.054 1.52.05.336 0 .67-.015 1.003-.046.171-.017.405-.076.562.017a.224.224 0 0 1 .118.167c.014.107-.05.225-.146.294-.181.133-.431.172-.631.273-.54.266-.814.797-1.104 1.298-.34.58-.673 1.163-1.016 1.744a68.002 68.002 0 0 1-1.597 2.59c-.162.236-.382.477-.39.773-.025.753.012 1.515.012 2.27 0 .379-.041.842.204 1.161.222.291.579.279.906.349.247.054.649.203.477.541-.087.182-.328.185-.503.182-.29-.006-.578-.039-.868-.054a25.595 25.595 0 0 0-2.014-.016c-.322.008-.644.014-.964.05-.214.023-.461.085-.661-.027a.338.338 0 0 1-.124-.482c.111-.187.34-.187.533-.2.23-.018.465-.06.662-.184.357-.227.377-.666.378-1.049l-.001-1.578c0-.32.037-.663-.003-.98-.024-.21-.15-.399-.263-.573a9.967 9.967 0 0 1-.361-.622c-.533-.968-1.066-1.937-1.602-2.904-.251-.456-.493-.917-.74-1.377-.217-.404-.446-.76-.908-.893-.244-.067-.927-.16-.71-.588Zm-3.77-.305c.177.001.405.019.51.185.125.196.067.516.066.734v.174c-.002.256-.002.512 0 .767.003.257.082.633-.044.871-.176.336-.43.042-.471-.199-.048-.264-.073-.532-.168-.788-.174-.47-.54-.719-1.018-.825-.489-.109-.998-.11-1.5-.113-.498-.005-1.062-.058-1.544.107-.315.107-.285.347-.293.636-.008.327-.02 4.483-.021 6.204v.45c0 .597.004 1.202.041 1.8.031.536.242.862.776.995.227.059 1.383.112.956.633-.172.21-.53.162-.768.138-.306-.03-.61-.048-.919-.057a36.253 36.253 0 0 0-2.874.042c-.24.014-.52.096-.754-.008a.317.317 0 0 1-.08-.54c.16-.14.412-.126.61-.154.393-.054.828-.168.978-.583.173-.484.115-1.084.115-1.588 0-1.256.003-6.22-.026-7.442-.003-.215-.024-.464-.242-.568-.191-.089-.432-.065-.637-.067a66.599 66.599 0 0 0-.788 0c-.813.003-2.143-.106-2.606.737-.188.341-.202.742-.28 1.119-.032.148-.153.275-.324.205-.223-.093-.183-.477-.184-.669 0-.32.01-.64.01-.963 0-.284-.044-.61.014-.89.063-.32.387-.348.662-.342.419.011.835.036 1.252.05.88.033 1.757.052 2.637.062 1.175.011 2.347.01 3.518-.009.795-.012 1.59-.033 2.384-.064.337-.012.677-.042 1.012-.04Zm-60.576.364c.039-.358.574-.265.807-.252.411.023.82.04 1.232.045.838.012 1.68.003 2.52-.013.83-.015 1.661-.028 2.493-.034.377-.001.754-.01 1.132.03.307.03.515.15.523.488.009.41-.066.822-.036 1.234.017.256.212.841-.113.983-.404.173-.457-.434-.51-.672a1.481 1.481 0 0 0-.48-.826c-.444-.377-1.054-.448-1.615-.487-.35-.023-.703-.03-1.055-.031-.348-.002-.753-.044-1.093.042-.296.073-.23.546-.237.785-.01.405.006.81.006 1.214 0 .818-.022 1.635.002 2.453.052-.01.105-.01.16-.016.802-.059 1.787-.143 2.177-.973.093-.2.143-.42.182-.635.029-.156.05-.342.16-.467.153-.179.384-.102.456.11.08.237.034.556.015.8-.043.571-.068 1.14-.053 1.714.016.55.115 1.114.095 1.662-.008.19-.132.546-.391.412-.19-.101-.2-.414-.253-.591-.076-.27-.185-.54-.374-.751-.525-.596-1.451-.562-2.176-.565v1.633c0 .517-.006 1.032.006 1.546.01.396.024.826.236 1.173.176.293.481.447.806.521.46.106.951.098 1.42.097.487-.003.985-.025 1.459-.148.445-.115.847-.342 1.112-.725.153-.22.25-.473.32-.732.051-.189.096-.58.362-.58.023 0 .045 0 .062.006.422.096.23 1.199.214 1.468-.017.314-.026.625-.034.941-.003.142.003.349-.117.453-.217.193-.794.098-1.086.088-.57-.014-1.142-.026-1.715-.035-.953-.017-1.904-.028-2.856-.031-.613-.002-1.221-.011-1.832.003-.314.007-.626.025-.938.037-.267.012-.646.137-.88-.039-.203-.15-.112-.48.101-.574.357-.157.78-.06 1.102-.32.267-.213.297-.586.3-.918v-7.723c0-.411.034-.948-.362-1.206-.225-.146-.477-.142-.734-.174-.225-.028-.556-.122-.52-.42Zm44.578-.234c.296-.014.976-.168 1.169.147.215.359-.427.45-.634.482-.36.056-.786.071-.976.439-.146.276-.143.63-.143.927-.003.325 0 .634 0 .944v6.581c0 .53.04 1.113.634 1.302.277.088.57.088.855.158a.427.427 0 0 1 .152.071c.136.098.216.27.1.425-.164.22-.484.179-.716.158-.31-.026-.624-.04-.936-.05-.65-.021-1.302-.023-1.954-.007-.328.01-.652.025-.976.042-.28.017-1.118.12-.879-.431.065-.15.197-.204.35-.23.282-.045.555-.053.828-.154.557-.204.582-.781.582-1.284V86.99c0-.072 0-.16-.004-.24-.01-.31-.04-.678-.306-.879-.297-.227-.7-.233-1.054-.266-.14-.014-.315-.026-.4-.154-.11-.16.007-.342.158-.418.18-.092.413-.072.608-.062.24.012.477.024.717.034.94.034 1.886.032 2.825-.01Zm-64.402 0c.295-.014.975-.168 1.166.147.217.359-.426.45-.632.482-.362.056-.785.071-.978.439-.144.276-.141.63-.144.927v7.525c.003.53.042 1.113.636 1.302.276.088.573.088.855.158a.415.415 0 0 1 .152.071c.137.098.215.27.098.425-.16.22-.483.179-.714.158-.31-.026-.622-.04-.936-.05-.65-.021-1.302-.023-1.955-.007-.326.01-.65.025-.976.042-.278.017-1.116.12-.877-.431.065-.15.195-.204.349-.23.282-.045.557-.053.829-.154.557-.204.582-.781.582-1.284v-7.642l-.005-.123c-.01-.31-.039-.678-.306-.879-.296-.227-.701-.233-1.055-.266-.14-.014-.315-.026-.4-.154-.108-.16.009-.342.16-.418.18-.092.414-.072.608-.062.239.012.476.024.717.034.939.034 1.885.032 2.826-.01ZM20.79 83.81H9.63a34.727 34.727 0 0 0 3.164 3.474c5.093 4.878 10.457 7.035 12.509 7.732V87.94h-.023c-.483-.005-1.133.078-1.596.356-.383.23-.684.48-1.038.958-.35.476-.739 1.183-1.232 2.27l-.412.254-.39-.29c-.01-.03-.232-.653-.232-1.55a4.786 4.786 0 0 1 .844-2.766c.089-.125.159-.223.236-.327-.22.087-.445.16-.684.187-.2.021-.385.026-.559.026l-.455-.005c-.715.019-1.27.038-2.455 1.165l-.525.063a.436.436 0 0 1-.192-.49c.327-1.193.732-1.901 1.308-2.388.571-.485 1.214-.723 2.027-1.154.357-.185.626-.311.865-.439Zm26.37-8.117H27.4l2.143 6.442h5.556c.188 0 .354.121.41.3l-.157.484-4.49 3.285 1.475 5.01-.154.47-.494.02-4.975-3.156v6.445a.842.842 0 0 0 .074-.023 31.069 31.069 0 0 0 2.781-1.131 36.104 36.104 0 0 0 8.468-5.502 34.46 34.46 0 0 0 9.123-12.644Zm85.29 9.866-.251.014c-.263.025-.443.119-.466.394-.025.29-.019.588-.017.879.005.681.006 1.366.006 2.045.002.349.002.686.002 1.024v.512c0 .043-.027.207.003.24.03.037.132.015.175.015.834 0 1.791-.019 2.516-.495.821-.536.936-1.613.826-2.509-.115-.925-.609-1.667-1.52-1.947a4.118 4.118 0 0 0-1.525-.158ZM26.714 76.384V87.52l4.466 2.833-1.235-4.197.16-.473 3.662-2.68h-4.536a.44.44 0 0 1-.413-.296l-2.104-6.322Zm-1.411-10.658a2.432 2.432 0 0 1-.182.3c-.028.033-.063.057-.093.089-.059.065-.116.133-.186.186l-.042.013c-.019.01-.026.028-.043.04h-.004l-.363.083-.037.01-.01-.001a8.53 8.53 0 0 1-.047.78 5.7 5.7 0 0 1-.234 1.21v.001c-.008.016-.008.026-.013.034l-.197.206c-.006.004-.013.004-.02.007l-.03.033c-.132.05-.289.076-.44.107-.074.014-.139.042-.215.055l-.037.001a5.254 5.254 0 0 1-.734.055c-.048 0-.109-.017-.158-.017a7.921 7.921 0 0 1-1.106-.122c1.141.92 1.81 1.704 2.217 2.42.64 1.135.594 2.05.782 2.807.104.436.135 1.098.137 1.904-.002 1.6-.151 3.674-.382 4.88-.086.41-.148.701-.312.958-.45.64-.629 1.24-1.223 1.932-.64.736-1.253.922-2.002 1.32-.865.449-1.462.69-1.869 1.046-.17.148-.326.334-.473.574.675-.362 1.268-.464 1.775-.453l.455.005.464-.02c.657-.053 1.549-.769 1.912-1.131l.186-.191.553-.074a.44.44 0 0 1 .169.534c-.236.57-.383.83-.593 1.087-.2.252-.438.507-.971 1.274-.531.763-.68 1.559-.688 2.215.245-.457.473-.836.698-1.146a4.205 4.205 0 0 1 1.298-1.19c.687-.403 1.468-.476 2.035-.478l.023.002ZM10.48 75.687H4.85a34.699 34.699 0 0 0 3.612 6.548h13.806c.158-.286.326-.6.57-.962.012 0 .116-.275.177-.633.073-.364.136-.843.19-1.367.11-1.056.178-2.316.178-3.346 0-.08-.005-.156-.005-.235h-9.76c-.018.087-.02.165-.049.255-.127.332-.368.521-.64.7-.28.167-.601.294-.957.299-.372-.003-.737-.065-1.043-.297-.285-.215-.428-.576-.447-.962Zm71.509-34.01c.284-.045.588.04.808.23.326.285.447.745.572 1.145l.242.787 7.549 24.72 4.504-14.67c1.148-3.658 1.64-6.47 1.64-8.326.005-.587-.178-1.178-.6-1.623-.615-.619-1.506-.807-2.335-.927-.27-.039-.548-.04-.812-.107-.3-.075-.533-.271-.543-.595.002-.625.885-.65 1.324-.636.745.024 1.487.087 2.229.12 1.175.05 2.351.075 3.526.075.658 0 1.313-.036 1.97-.084.36-.025.72-.072 1.08-.05.222.015.473.014.673.13.272.16.242.528.045.735-.222.235-.55.322-.849.41-.38.114-.768.196-1.137.336-.738.277-1.284.833-1.686 1.59-.41.76-.737 1.749-1.158 3.107 0 .009-.004.021-.007.032l-.205.654c-.141.462-.284.92-.43 1.381-.203.66-.408 1.316-.613 1.974-.252.806-.5 1.613-.751 2.422l-.85 2.727c-.299.966-.597 1.93-.898 2.895-.303.974-.605 1.946-.906 2.92l-.873 2.803c-.265.849-.527 1.697-.79 2.546-.225.716-.446 1.433-.668 2.15-.166.535-.337 1.072-.502 1.608-.248.797-.475 1.603-.793 2.376-.19.479-.396 1.001-.774 1.365-.303.293-.772.456-1.153.284-.379-.173-.609-.606-.767-.97-.197-.452-.338-.931-.475-1.404l-7.1-24.169-7.199 23.819c-.268.91-.544 1.636-.84 2.092-.393.594-1.107 1.008-1.75.476-.234-.193-.392-.465-.515-.742-.24-.544-.425-1.108-.612-1.674l-8.635-27.068c-.335-1.044-.604-1.75-.98-2.288a2.468 2.468 0 0 0-1.505-1.002c-.386-.089-.788-.115-1.18-.187-.311-.057-.741-.124-.961-.375a.524.524 0 0 1 .149-.817c.21-.105.496-.096.726-.102.583 0 2.641.2 6.033.2 2.29 0 4.395-.253 6.19-.251.455-.002.857.042 1.087.132.226.087.417.319.399.57-.022.295-.301.405-.547.461-.296.07-.602.095-.903.133-.472.057-.939.149-1.395.27-.405.108-.809.262-1.136.532a1.467 1.467 0 0 0-.461.675c-.08.25-.096.487-.096.72.006.526.16 1.306.458 2.525.296 1.212.738 2.824 1.336 4.874 1.023 3.514 2.455 8.208 4.258 14.109l.162.533.58 1.909 7.55-25.426c.187-.648.373-1.208.572-1.527.174-.27.396-.48.728-.532ZM16.36 67.19l-.014.002a2.099 2.099 0 0 0-.558.084c-.049.015-.083.04-.13.057a1.769 1.769 0 0 0-.331.162c-.04.028-.06.056-.093.085a.97.97 0 0 0-.182.187.522.522 0 0 0-.073.195c-.003.021-.023.048-.02.068 0 .016.004.033.006.048a.42.42 0 0 0 .076.192c.01.015.03.034.044.05.052.057.113.113.181.163.044.032.08.062.137.098l.003.006.057.04.082.232.07.14-.017.022.01.02-.27.307-.016.02h-.003c-.157.051-.317.048-.473.068-.167.022-.334.07-.494.07-.236 0-.463-.018-.678-.045-.07-.01-.143-.017-.21-.025-.24-.034-.439-.067-.594-.087l-.211-.02-.05-.005-.01.002a.721.721 0 0 0-.322.068c-.012.006-.028.011-.039.017-.014.008-.017.022-.028.031l-.118.167-.059.207.235.398c.169.142.444.263.75.316a.434.434 0 0 1 .121.815c-.403.205-.946.457-1.292.625-.355.16-.778.655-.762 1.042v.01l.1.415c.078.114.155.212.516.232.23.006.42.2.42.434.004.247-.1.471-.213.614l-.317.325c-.175.18-.25.237-.26.546.007.252.06.313.126.372.07.06.246.118.514.115.211.027.702-.256.767-.396l.01-.014c.043-.115.06-.333.078-.577.03-.243.04-.532.261-.823a.915.915 0 0 1 .669-.325l.416.248c.236.48.495.574.672.578l.158-.032c.328-.155.393-.29.475-.538.075-.247.073-.59.179-.97.071-.25.228-.54.523-.724l.54.064c.226.233.39.36.507.42l.353.08.059-.004c.27-.018.349-.082.47-.227.113-.15.217-.423.312-.759.2-.658.38-1.593 1.226-2.186.3-.199.628-.312.956-.385l-.146-.122a24.608 24.608 0 0 0-2.12-1.487c-.098-.057-.192-.116-.287-.168-.03-.015-.062-.03-.092-.048a6.359 6.359 0 0 0-.613-.27l-.186-.068a1.19 1.19 0 0 0-.117-.033l-.224-.046c-.148-.033-.298-.071-.44-.071Zm98.454-26.322c.244.004.405.098.58.294.154.174.31.479.457.82l11.023 27.858c.441 1.08.846 1.916 1.309 2.568.458.649.995 1.12 1.637 1.384a5.74 5.74 0 0 0 1.014.307c.462.096.942.121 1.386.29.263.099.541.345.447.654-.086.291-.426.426-.699.465-.63.087-1.294-.003-1.924-.03-.191 0-.384-.02-.573-.027-1.4-.064-2.804-.139-4.208-.128-1.396.011-2.785.14-4.18.23-.424.028-.846.04-1.269.061-.426.017-.86.026-1.283-.054-.312-.06-.78-.259-.69-.663.117-.534 1.1-.596 1.51-.661l.142-.02c.874-.128 2.176-.312 2.445-1.332.155-.588 0-1.204-.132-1.783a13.033 13.033 0 0 0-.54-1.745c.003.005-2.276-6.042-2.276-6.042h-12.5l-2.172 5.446c-.145.361-.266.731-.368 1.106a7.977 7.977 0 0 0-.27 1.528c-.039.538.014 1.146.33 1.604.326.472.767.77 1.262.978.368.154.767.26 1.166.348.37.083.956.15 1.066.602a.468.468 0 0 1-.005.262c-.059.183-.257.302-.433.36-.368.124-.766.074-1.145.035-.321 0-.653-.064-.972-.093-.324-.028-.647-.058-.97-.081a27.933 27.933 0 0 0-1.907-.084 37.05 37.05 0 0 0-2.12.053c-.69.04-1.372.113-2.063.138-.307.012-.645.019-.946-.042a.863.863 0 0 1-.517-.29c-.123-.161-.163-.393-.064-.569.109-.191.343-.27.557-.326.641-.17 1.306-.273 1.923-.515 1.012-.397 1.779-1.221 2.331-2.13.607-.998 1.071-2.083 1.524-3.156l11.134-26.614c.122-.292.263-.562.409-.726.166-.18.332-.277.574-.28Zm49.485.658c1.848.088 3.695.167 5.545.209 1.023.023 2.047.04 3.07.051a387.875 387.875 0 0 0 7.695.006c3.05-.03 6.136-.104 9.195-.272.55-.03 1.099-.087 1.648-.048.314.023.668.09.876.347.127.162.188.367.214.57.06.427.01.87.01 1.301-.005 1.36-.007 2.72-.007 4.082 0 .383.06.83-.059 1.2a.51.51 0 0 1-.14.233c-.251.222-.575-.008-.7-.25-.246-.478-.242-1.116-.336-1.639-.19-1.014-.516-2.064-1.28-2.797-.68-.656-1.613-.967-2.524-1.135-1.734-.32-3.523-.311-5.28-.291-.466.001-.936.003-1.4.071-.309.044-.647.137-.85.39-.212.268-.278.645-.3.976-.05.856-.028 1.73-.028 2.589v.22c0 2.37-.002 22.997.07 23.776.065.664.206 1.365.648 1.888.562.661 1.452.946 2.279 1.086.458.075.922.09 1.381.157.32.047.809.093.976.42.225.437-.21.751-.59.843-.522.126-1.073.014-1.598-.022a86.774 86.774 0 0 0-5.117-.172c-1.009-.007-2.02 0-3.033.021a77.495 77.495 0 0 0-3.69.168c-.452.032-.931.106-1.378.03-.364-.06-.783-.336-.674-.765.107-.411.655-.476 1.001-.52.885-.112 1.772-.143 2.603-.502.709-.307 1.274-.819 1.516-1.567.276-.837.252-1.734.255-2.604l.03-22.313c-.009-1.042.015-1.885-.041-2.825-.019-.351-.086-.712-.365-.95-.372-.32-.872-.356-1.336-.384-1.231-.075-2.491-.03-3.72.015-.801.031-1.604.114-2.392.265-.996.193-2.002.52-2.716 1.275-.883.93-1.043 2.198-1.234 3.409-.062.385-.154 1.372-.774 1.202-.31-.086-.346-.43-.37-.7-.028-.333-.017-.669-.014-1.003.022-1.41.002-2.819.005-4.228 0-.46-.1-1.105.214-1.495.258-.32.714-.361 1.094-.383.534-.026 1.085.039 1.62.065Zm-33.798 0c1.848.088 3.695.167 5.545.209 1.025.023 2.047.04 3.07.051a387.875 387.875 0 0 0 7.695.006c1.054-.014 2.106-.028 3.158-.05a167.33 167.33 0 0 0 2.507-.068c.64-.02 1.277-.045 1.915-.074.539-.024 1.077-.049 1.617-.08.548-.03 1.097-.087 1.647-.048.313.023.669.09.877.347.127.162.184.367.212.57.062.427.01.87.01 1.301-.003.454-.003.909-.003 1.36-.002.908-.005 1.815-.005 2.722 0 .383.064.83-.058 1.2a.507.507 0 0 1-.138.233c-.253.222-.577-.008-.7-.25-.248-.478-.243-1.116-.338-1.639-.188-1.014-.515-2.064-1.277-2.797-.685-.656-1.614-.967-2.528-1.135a17.687 17.687 0 0 0-2.516-.263 51.356 51.356 0 0 0-1.904-.028h-.704c-.52-.005-1.038-.006-1.553.071-.309.044-.649.137-.85.39-.213.268-.278.645-.302.976-.051.856-.028 1.73-.028 2.589l.024 21.51c0 .827-.03 1.66.048 2.486.063.664.205 1.365.648 1.888.564.661 1.45.946 2.277 1.086h.002c.456.075.92.09 1.38.157.32.047.808.093.976.42.223.437-.21.751-.59.843-.523.126-1.07.014-1.597-.022a86.887 86.887 0 0 0-5.119-.172c-1.008-.007-2.02 0-3.032.021a77.578 77.578 0 0 0-3.69.168c-.45.032-.932.106-1.379.03-.362-.06-.782-.336-.67-.765.105-.411.651-.476.997-.52.887-.112 1.773-.143 2.603-.502.71-.307 1.274-.819 1.518-1.567.275-.837.25-1.734.253-2.604l.03-22.313c-.008-1.042.015-1.885-.04-2.825-.018-.351-.086-.712-.366-.95-.372-.32-.87-.356-1.336-.384-1.23-.075-2.49-.03-3.72.015-.802.031-1.603.114-2.392.265-.993.193-2 .52-2.716 1.275-.883.93-1.043 2.198-1.235 3.409-.06.385-.152 1.372-.773 1.202-.31-.086-.346-.43-.37-.7-.026-.333-.015-.669-.013-1.003.021-1.41.004-2.819.004-4.228 0-.46-.099-1.105.218-1.495.256-.32.712-.361 1.09-.383.536-.026 1.086.039 1.621.065ZM7.016 67.56H2.453c.44 2.378 1.04 4.568 1.777 6.569l6.465.004c-.088-.079-.2-.147-.253-.24a1.663 1.663 0 0 1-.223-.87V73c.016-.437.18-.814.414-1.118-.156.06-.324.098-.51.1l-.374-.048a1.148 1.148 0 0 1-.629-.441 2.12 2.12 0 0 1-.298-.604c-.01-.033-.012-.06-.025-.093-.038.042-.059.08-.104.116-.29.248-.675.475-1.148.476a1.647 1.647 0 0 1-.844-.247 1.267 1.267 0 0 1-.627-1.126c.014-.713.45-1.4 1.106-1.859a1.09 1.09 0 0 1-.172-.576c0-.007.008-.014.008-.021Zm43.324-8.127H26.714v.588h.012a.436.436 0 0 1 .408.308l.24.25c.156.113.378.222.603.306.32.12.664.331.95.652.282.314.507.757.507 1.283-.007.557-.278.997-.534 1.324-.256.319-.546.57-.586.622l-.033.062.166.272.055.025.19.042.092-.054c.034-.055.183-.41.407-.752.228-.348.563-.745 1.09-.92.192-.063.38-.09.564-.09.78.009 1.378.458 1.715.884.272.35.585.49.753.486a.438.438 0 0 1 .427.298l-.163.489c-.143.095-.315.395-.333.846-.012.34-.107.734-.32 1.106-.209.37-.56.722-1.06.884l-.527.079c-.417-.002-.785-.13-1.082-.26-.287-.127-.534-.272-.58-.29l-.045-.012-.112.078-.113.171-.01.105.035.175.066.042c.062.017.446.05.838.159.4.11.879.308 1.208.758.256.35.354.748.352 1.112-.004.52-.18.977-.4 1.311-.179.266-.25.523-.249.702l.025.174-.155.493-.514-.003c-.083-.065-.24-.123-.459-.121l-.44.065a2.422 2.422 0 0 1-.646.085c-.548.002-1.225-.186-1.663-.788-.284-.398-.349-.848-.349-1.23 0-.478.114-.928.117-1.01v-.022l-.073-.098-.236-.075-.138-.004v3.699l.161.479h20.9c1.51-4.093 2.476-8.943 2.565-14.685ZM21.454 70.255c-.52.061-1.032.148-1.32.355-.376.255-.572.674-.73 1.189-.166.505-.255 1.074-.604 1.557a1.403 1.403 0 0 1-1.128.575h-.003l-.09.005a1.59 1.59 0 0 1-.755-.179c-.113-.06-.223-.182-.332-.268-.02.067-.039.126-.056.234-.018.112-.035.253-.059.395h6.873c-.19-.882-.168-1.582-.676-2.472-.228-.403-.583-.865-1.12-1.39Zm20.175-10.259c.19 0 .36.125.414.307.046.166.278.424.698.577.318.12.661.331.947.651.284.316.506.758.506 1.284-.003.557-.275.998-.53 1.324-.255.32-.549.57-.589.623l-.031.061.164.274.055.025.19.042.094-.055c.035-.054.181-.409.405-.754.23-.347.562-.744 1.09-.921.192-.06.383-.089.566-.089.777.011 1.376.46 1.716.885.27.35.582.492.752.486a.435.435 0 0 1 .423.3l-.161.49c-.141.09-.315.393-.33.845a2.42 2.42 0 0 1-.324 1.104c-.21.369-.557.72-1.056.882l-.531.08c-.415 0-.786-.13-1.082-.257-.286-.128-.53-.274-.579-.291l-.043-.014-.114.078-.113.17-.005.106.03.178.067.042c.07.017.447.048.84.157.398.11.878.306 1.207.757.254.352.354.75.352 1.114a2.41 2.41 0 0 1-.4 1.31c-.177.268-.252.526-.252.703l.028.176-.155.491-.515-.003c-.087-.067-.242-.124-.46-.124l-.439.068a2.403 2.403 0 0 1-.647.087c-.55.002-1.223-.19-1.662-.794-.283-.396-.346-.845-.346-1.226 0-.48.111-.932.114-1.011v-.022l-.076-.095-.232-.072-.014.004-.154.05-.109.113v.02c.005.081.117.532.117 1.013 0 .38-.065.83-.348 1.226-.44.605-1.113.796-1.662.794-.234 0-.453-.032-.649-.087l-.44-.068c-.215 0-.372.057-.457.123l-.515.004-.157-.49.026-.175c.002-.18-.073-.437-.248-.705a2.437 2.437 0 0 1-.4-1.31c0-.364.096-.762.352-1.114.332-.45.809-.647 1.207-.757.393-.109.773-.14.839-.157l.07-.042.03-.18-.009-.11-.005-.01-.082-.123-.135-.11-.048.015c-.047.017-.29.163-.577.29-.297.128-.668.257-1.082.259l-.532-.081a1.903 1.903 0 0 1-1.057-.882 2.478 2.478 0 0 1-.323-1.104c-.013-.452-.188-.755-.33-.845l-.164-.485a.436.436 0 0 1 .41-.305h.014c.17.006.484-.134.756-.486.338-.426.937-.874 1.716-.885.184 0 .374.028.562.089.53.177.863.574 1.091.92.225.346.371.7.408.755l.089.052.265-.078.067-.081.084-.179-.033-.06c-.042-.054-.33-.304-.588-.624-.256-.326-.528-.767-.532-1.324a1.911 1.911 0 0 1 .506-1.284c.285-.32.63-.532.95-.651.419-.153.648-.411.693-.576a.43.43 0 0 1 .412-.308ZM26.714 61.15v6.683a.999.999 0 0 0 .811-.974c0-.381-.206-.71-.512-.883a1.246 1.246 0 0 1-.146 2.482c-.052 0-.1-.022-.153-.026v.642l.175.003h.028c.03.005.244.019.504.14.25.101.612.413.609.901l-.006.103c-.025.231-.114.56-.114.93 0 .283.058.544.185.717.222.313.587.432.96.434l.412-.056c.231-.065.456-.1.675-.1.098.004.19.027.287.04.05-.302.154-.604.345-.895.132-.193.256-.523.253-.83a1.021 1.021 0 0 0-.185-.603c-.143-.2-.424-.345-.736-.43-.316-.086-.591-.103-.799-.147a.927.927 0 0 1-.644-.484 1.242 1.242 0 0 1-.134-.581c0-.19.035-.324.036-.346l.023-.068c.011-.022.08-.188.227-.375.144-.179.405-.43.815-.434l.394.084c.16.075.337.185.58.292.238.106.506.19.733.187l.26-.037c.262-.086.443-.262.577-.492a1.63 1.63 0 0 0 .206-.706c.016-.342.098-.652.23-.926a2.34 2.34 0 0 1-.731-.625c-.199-.263-.634-.56-1.034-.55l-.293.048c-.236.071-.46.295-.635.569-.18.275-.282.535-.385.719a.955.955 0 0 1-.84.482c-.422-.008-.696-.198-.73-.21l-.027-.019-.015-.012-.031-.024c-.02-.04-.441-.328-.474-.944a.964.964 0 0 1 .245-.636c.143-.154.357-.335.562-.59.204-.252.348-.536.342-.782 0-.279-.11-.507-.284-.706a1.582 1.582 0 0 0-.604-.414 3.631 3.631 0 0 1-.804-.41c-.054-.041-.102-.096-.158-.14Zm14.918.034c-.22.215-.488.39-.807.512a1.553 1.553 0 0 0-.604.415c-.177.2-.286.425-.286.705-.004.244.14.53.342.782.205.258.42.436.56.591a.946.946 0 0 1 .248.635c-.03.618-.458.905-.475.944l-.059.044c-.034.014-.316.208-.746.218a.952.952 0 0 1-.837-.478c-.102-.182-.203-.445-.383-.72-.175-.272-.4-.498-.635-.57l-.295-.046c-.4-.011-.835.29-1.033.55-.214.271-.464.483-.731.626.132.272.212.583.23.925.004.2.072.476.204.703.135.23.315.405.576.492l.264.039c.225.001.495-.081.731-.185.242-.108.419-.221.58-.293l.396-.085c.41.004.668.253.812.434.15.186.217.353.226.375l.025.067c.002.023.033.154.034.345-.001.157-.02.364-.13.58a.942.942 0 0 1-.646.489c-.204.042-.484.059-.799.146-.31.084-.594.23-.734.43-.133.189-.186.388-.186.604-.003.305.12.633.251.83.191.287.297.59.346.892.095-.012.187-.039.286-.039.217 0 .445.035.677.101l.41.055c.37-.003.738-.123.962-.434.127-.174.183-.434.183-.717 0-.372-.086-.7-.11-.929l-.007-.104c-.007-.49.357-.8.61-.9.261-.122.477-.136.503-.14h.073c.028.004.247.018.51.136.252.101.626.408.625.904l-.007.103c-.026.231-.113.558-.113.93 0 .283.057.543.185.717.222.311.588.43.959.434l.411-.055c.228-.066.456-.098.675-.098.1 0 .191.024.286.04.051-.306.157-.609.349-.9a1.59 1.59 0 0 0 .251-.826c0-.216-.052-.415-.186-.603-.143-.201-.425-.347-.735-.431-.316-.087-.595-.104-.797-.146a.94.94 0 0 1-.648-.487 1.244 1.244 0 0 1-.13-.58c0-.192.03-.326.035-.347l.023-.067c.011-.022.076-.189.227-.375.143-.18.402-.43.815-.434l.39.085c.164.072.34.185.581.293.24.104.508.186.733.185l.262-.039c.262-.087.444-.263.579-.492.132-.227.197-.504.203-.703.016-.342.098-.651.23-.925a2.333 2.333 0 0 1-.73-.626c-.198-.264-.636-.561-1.033-.55l-.297.046c-.232.072-.457.298-.633.571-.18.276-.282.537-.385.719a.947.947 0 0 1-.84.48c-.42-.007-.695-.197-.729-.21l-.042-.027-.012-.011-.019-.016c-.017-.039-.444-.325-.475-.944a.95.95 0 0 1 .247-.635c.143-.155.356-.333.56-.59.205-.253.35-.539.345-.783 0-.277-.11-.506-.286-.705a1.56 1.56 0 0 0-.602-.415 2.307 2.307 0 0 1-.808-.512Zm-29.943 9.67c-.045.082-.073.158-.128.246-.017.024-.041.05-.059.076.11-.055.252-.122.387-.185-.056-.038-.12-.06-.17-.101-.01-.008-.016-.025-.03-.036Zm2.809-6.101-.023.001v.002l-.01.017-.025.173c0 .1.02.242.047.392.016.074.037.152.056.232.03.122.057.242.098.374.003.002.006.018.006.018l-.13.421-.011.036-.475.051-.011-.006a4.657 4.657 0 0 0-.955-.383c-.012-.003-.017-.009-.03-.009-.35-.1-.736-.156-1.12-.163-.05 0-.09.006-.136.009l-.249.08a.799.799 0 0 0-.1.093l-.058.1.14.243.135.316-.003.006.004.013-.046.08-.09.215c-.011.011-.025.016-.039.025l-.008.014a1.312 1.312 0 0 1-.416.21c-.025.007-.04.02-.066.025-.236.06-.475.073-.711.081a7.5 7.5 0 0 1-1.478-.173l-.18-.009c-.292-.003-.498.075-.608.154l-.13.191c0 .05.024.164.24.318l.183.406-.271.353c-.643.243-1.11.957-1.09 1.358.01.19.05.278.206.38l.4.125c.182 0 .378-.09.588-.269.208-.175.403-.42.578-.637l.437-.148.324.331c.034.154.057.364.112.597.052.228.14.46.23.58l.155.12.155.02c.24.008.507-.19.721-.505.213-.294.328-.715.316-.736v-.014c0-.063.021-.222.07-.407l.021-.11c.016-.041.047-.08.065-.122.017-.039.017-.068.042-.107.013-.03.04-.055.058-.083a1.265 1.265 0 0 1 .26-.27c.025-.02.038-.044.066-.061.012-.008.027-.013.038-.02.089-.055.188-.098.292-.131l.084-.036c.14-.037.289-.059.45-.056h.01l.005-.001.038.006.167.006c.048.005.117.017.17.025l.131.012c.121.022.275.044.424.067.224.031.458.052.69.058-.02-.033-.024-.081-.04-.117a1.289 1.289 0 0 1-.097-.39c0-.027-.017-.044-.017-.069l.004-.093c.008-.121.08-.213.117-.322.038-.117.054-.243.122-.345.08-.123.196-.218.308-.32.063-.057.104-.131.173-.181.01-.006.02-.008.028-.016.014-.008.024-.023.036-.03.135-.09.296-.142.452-.205.073-.03.136-.073.217-.098.251-.074.528-.12.816-.121 0 0 .002-.002.005-.002l.005.001.006.001.161.01-.034-.214.002-.008.006-.068-.027-.05a.96.96 0 0 0-.263-.442l-.128-.104a1.973 1.973 0 0 0-.32-.24c-.34-.2-.754-.35-1.142-.438l-.133-.017Zm27.263 1.222a1.245 1.245 0 0 1 1.097 1.24 1.245 1.245 0 0 1-2.479.15 1.014 1.014 0 0 0 1.893-.507c0-.379-.207-.707-.511-.883Zm-24.979-9.04c-.057.001-.097.021-.147.034a.753.753 0 0 0-.377.188c-.011.01-.028.017-.036.028l-.01.003a.964.964 0 0 0-.202.265c-.05.095-.084.216-.101.415 0 .062.03.137.04.2.017.103.037.208.084.312.068.163.172.345.327.55.01.02.017.033.031.05l.003.277.01.207-.006.005v.004l-.275.11-.176.075-.28-.032-.077-.005h-.003l-.313.07-.067.198.013.121c.006.031.02.067.03.103a.835.835 0 0 0 .12.25c.048.073.112.15.186.227.056.058.112.118.182.174.076.067.174.128.267.192.155.1.3.183.445.255.14.067.283.135.438.19l.113.042a.436.436 0 0 1 0 .829l-.344.109-.39.126c-.014.004-.018.007-.03.012l-.43.209a.54.54 0 0 0-.21.443l-.002.026c0 .011.006.019.006.031.011.198.095.39.405.65.15.12.362.245.612.37.032.016.059.032.088.05.278.13.603.262.994.391.149.05.237.18.267.331l.02.02-.01.02c.002.026.022.048.02.074a.415.415 0 0 1-.172.29l-.014.037-.014.01-.052.046-.17.17-.204.429v.007l.066.153.047.048.158.14a1.338 1.338 0 0 0 .576.08c.214-.008.438-.043.6-.1l.064.01.325.041.007.017.022.003.048.119.114.202.201.398a1.11 1.11 0 0 0 .18.156c.146.107.363.22.654.33.24.091.503.166.78.219.283.059.56.076.835.09.112.008.23.031.336.031a3.53 3.53 0 0 0 .912-.107c.06-.224.113-.509.15-.887.004-.076.01-.15.016-.232.003-.053.003-.116.005-.172.005-.153.01-.305.008-.452l-.002-.281v-.031c-.014-.716-.172-1.257-.374-1.593-.214-.336-.46-.462-.57-.454-.07.003-.17.043-.276.18a1.3 1.3 0 0 0-.164.285c-.007.017-.014.026-.022.046l-.003.005-.047.034-.276.23-.014-.004-.014.01-.135-.061-.239-.081c-.008-.01-.01-.019-.014-.03l-.015-.005c-.067-.09-.095-.183-.143-.276-.055-.103-.127-.207-.16-.31a1.823 1.823 0 0 1-.092-.585c.003-.2.033-.389.066-.577.035-.3.076-.574.076-.778-.002-.036-.008-.053-.01-.082a.707.707 0 0 0-.045-.226c-.007-.012-.014-.03-.018-.037a.192.192 0 0 0-.048-.044l-.03-.021a.813.813 0 0 0-.14-.053c-.021-.007-.035-.014-.06-.019l-.06-.006a.47.47 0 0 0-.24.08l-.052.04c-.101.065-.216.154-.347.292h-.003l-.003.003-.498.083c-.005-.002-.005-.005-.005-.007-.026-.009-.034-.035-.052-.051-.053-.04-.107-.08-.137-.14-.012-.026-.008-.06-.014-.087-.015-.053-.036-.103-.03-.159l.074-.566.006-.062.012-.2c.005-.11.011-.222.011-.345a5.33 5.33 0 0 0-.05-.715 4.115 4.115 0 0 0-.077-.397 2.737 2.737 0 0 0-.176-.535c-.014-.03-.028-.047-.045-.072a1.077 1.077 0 0 0-.125-.185l-.047-.053-.25-.104-.158.086-.177.182-.036.034-.097.104-.005.002-.044.042-.308.01-.173.027a.428.428 0 0 1-.2-.473l-.003-.003v-.02l.01-.028c.046-.244.07-.456.07-.613 0-.033-.006-.051-.007-.08a1.165 1.165 0 0 0-.045-.29l-.023-.069-.148-.154c-.008-.003-.017-.004-.023-.009a.914.914 0 0 0-.36-.072c-.03-.003-.054-.007-.089-.007Zm-9.599.802c-.305.013-.586.167-.65.579l-.017.246c.006.297.074.423.199.568.127.141.347.281.62.455l.188.467a.438.438 0 0 1-.38.33c-.508.042-.793.085-.849.126-.265.146-.334.312-.35.687l.004.11c.022.362.256.66.703.926.44.262 1.046.437 1.59.518a.44.44 0 0 1 .37.413.439.439 0 0 1-.334.441c-.415.1-.606.218-.682.296l-.125.28-.007.073c-.014.202.2.552.593.85.383.298.897.538 1.28.63.414.1.796.287 1.172.492 0-.01-.005-.017-.007-.026 0-.02.016-.037.02-.056a.96.96 0 0 1 .13-.467c.096-.149.237-.284.405-.403.017-.012.023-.032.043-.045.039-.025.078-.026.12-.043.077-.04.155-.072.232-.09.067-.018.135-.024.202-.033.064-.01.123-.033.19-.033.029 0 .054.011.083.011l.023-.001c.326 0 .693.06 1.042.135.054.01.11.008.161.022.152.037.308.087.452.141a3.215 3.215 0 0 1-.036-.213l-.014-.135a2.048 2.048 0 0 0-.167-.06.165.165 0 0 0-.03-.013 4.456 4.456 0 0 1-.483-.185c-.074-.036-.131-.083-.2-.12-.073-.04-.136-.08-.202-.118a5.962 5.962 0 0 1-.474-.304c-.05-.037-.106-.065-.157-.104a2.699 2.699 0 0 1-.72-.835 1.597 1.597 0 0 1-.076-.156c-.045-.095-.058-.199-.084-.302-.019-.08-.064-.155-.067-.242-.01-.18.075-.355.188-.514.025-.034.015-.08.043-.109l.159-.088c.021-.014.03-.044.057-.058.037-.017.06-.014.101-.028l.106-.059c.072-.014.122-.019.183-.028.073-.01.102-.023.146-.026l-.004-.137a1.063 1.063 0 0 0-.222-.482l-.176-.154c-.02-.013-.033-.03-.058-.038-.008-.004-.025-.004-.036-.01a.86.86 0 0 0-.282-.049l-.026.002c-.055-.007-.232.087-.402.289-.177.2-.326.439-.452.604l-.078.076c-.009.01-.01.023-.02.03l-.006-.004-.076.072a.43.43 0 0 1-.567-.092l.022-.574a.958.958 0 0 0 .276-.708l-.072-.477a5.221 5.221 0 0 0-.17-.5l-.161-.154-.135-.046-.126-.016-.462.179-.512.107a.437.437 0 0 1-.243-.468c.035-.191.055-.37.055-.527 0-.262-.055-.44-.137-.554-.082-.11-.208-.205-.509-.261Zm-4.522 1.685h-.986c.036 2.329.204 4.519.506 6.563h5.662c-.106-.067-.219-.121-.318-.198-.48-.38-.916-.872-.928-1.535l.018-.222c.034-.209.128-.49.351-.722a4.269 4.269 0 0 1-.753-.327c-.574-.333-1.086-.868-1.131-1.622l-.005-.164c-.014-.538.216-1.165.824-1.462.052-.025.106-.028.157-.047-.065-.073-.112-.17-.164-.262L2.66 59.42Zm17.551-7.207-.03.003a1.46 1.46 0 0 0-.336.06 1.78 1.78 0 0 0-.244.12c-.271.189-.366.366-.369.508-.008.115.062.288.234.48.176.189.466.4.9.607l.007.003.03.016a.435.435 0 0 1-.386.778c-.004-.004-.01-.01-.018-.013a3.78 3.78 0 0 0-.528-.21c-.036-.012-.068-.02-.104-.031a1.639 1.639 0 0 0-.37-.065l-.169.045-.066.053a.36.36 0 0 0-.031.074l-.003.028a.619.619 0 0 0-.014.151l.009.171a.371.371 0 0 1 .008.04c.035.303.133.581.256.835.037.076.082.138.126.211.103.18.214.345.333.492.039.045.07.085.109.129.12.137.248.26.379.373.155.13.313.254.47.363l.026.015.003.006c.005.002.005.005.006.005.171.109.249.322.179.515a.436.436 0 0 1-.484.277l-.197-.019-.137-.01c.036.065.068.133.1.206l.013.02.016.056c.036.089.074.173.105.276.027.087.033.174.053.261.027.126.054.25.073.372.014.092.03.191.037.261.002.019.01.05.01.064.023.247.034.456.034.642 0 .11-.013.2-.019.297.137-.045.272-.11.413-.112l.227.025c.01.002.023.01.034.011l.021.003.055.024c.124.032.237.079.344.138.058.031.107.078.159.118.05.04.104.06.147.11.017.02.023.047.039.066.014.022.04.034.056.056.05.076.07.157.098.235.014.036.037.072.046.109.04.15.062.305.062.446l-.001.028c0 .01.003.019.003.03 0 .202-.031.44-.072.695a4.281 4.281 0 0 0-.056.598 1.12 1.12 0 0 1 .73-.279l.014-.001c.535.004.985.354 1.293.863l.001.005c.283.452.452 1.051.483 1.72l.037.008h.008l.073-.09.135-.218c.001-.005.001-.008.005-.013.032-.067.068-.15.102-.231.082-.198.178-.456.286-.78.136-.435.25-.872.338-1.28v-.862c-.374-1.162-.852-1.24-.868-1.258a.444.444 0 0 1-.374-.45c.024-.463.188-.77.345-1.15.167-.412.192-.626.194-.82l-.014-.217c-.002-.042-.013-.106-.028-.216l-.163-.727c-.022-.06-.04-.088-.06-.129l-.177-.188c-.008-.003-.011-.008-.02-.012l-.373-.067-.01-.002c-.145 0-.31.025-.482.07l-.05.016a2.477 2.477 0 0 0-.482.204l-.018.009a.428.428 0 0 1-.53-.101l-.011-.002c-.002-.006-.003-.006-.005-.008l.006-.266.002-.284.019-.022.062-.084.206-.325c.073-.13.149-.288.214-.456l.019-.048c.057-.15.096-.316.127-.485.019-.11.04-.215.05-.332l.014-.17-.006-.111c-.004-.061-.011-.122-.018-.184a1.83 1.83 0 0 0-.088-.367.8.8 0 0 0-.06-.13l-.179-.17a.408.408 0 0 0-.129.046c-.04.018-.076.044-.132.08-.091.064-.192.134-.318.269l-.001.003-.142.019-.386.06c-.003-.003-.003-.004-.005-.004a.38.38 0 0 1-.152-.175c-.008-.015-.025-.021-.032-.037-.024-.064-.014-.13-.01-.196.003-.031-.012-.057-.004-.087a1.8 1.8 0 0 0 .082-.51l.001-.016a.862.862 0 0 0-.093-.41c-.004-.008-.014-.016-.017-.024a.723.723 0 0 0-.199-.202c-.066-.039-.124-.062-.187-.089a1.553 1.553 0 0 0-.609-.132Zm-8.936-.603c-.35.009-.478.091-.582.214-.106.128-.186.381-.196.748v.014c-.007.18.12.679.258 1.074.135.4.27.73.273.73l-.063.44-.409.155-.108-.01c-.244.016-.492.096-.702.603l-.034.22c.002.31.163.81.908 1.29l.67.338a.44.44 0 0 1 .236.45.436.436 0 0 1-.35.365c-.333.06-.672.123-.873.23-.158.097-.214.173-.243.324l.136.129.013.017c.009.017.035.028.046.045l.024.058.01.012.027.076.118.293.085.266c.095.105.231.185.489.216l.031-.003c.01 0 .016-.005.022-.005V59.9h.033l.004.001.05-.005c.082.002.135.042.21.053.154.024.31.049.434.108.026.012.063.007.087.02l.074.054.155.137c.04.033.098.052.134.09.022.022.03.052.053.074l.03.028.083.098c.03.046.05.104.076.154a1.797 1.797 0 0 1 .208.514c.01.042.03.083.04.128l.006.072.002.079c.008.06.03.11.031.174v.005l.002.05a.747.747 0 0 1-.218.546l-.054.026a.736.736 0 0 1-.301.159l-.04.006-.02.01c-.176.03-.29.043-.353.052 0 .095.05.209.112.322.04.075.1.146.166.224.04.048.088.093.136.145.094.088.198.179.314.269.124.093.267.177.413.264.043.024.082.052.127.075.214.112.432.207.62.277l.153.047a.23.23 0 0 1 .028.006c.006-.005.012-.008.015-.014l.04-.06c.03-.026.07-.038.105-.06.039-.025.074-.05.116-.067a.876.876 0 0 1 .366-.078h.045c.02.002.056.014.078.017l.199.022.097.03c-.015-.033-.014-.078-.029-.115a1.423 1.423 0 0 1-.157-.612c0-.006-.006-.009-.006-.017v-.032l.002-.005.004-.093c.013-.182.067-.372.15-.554 0-.003 0-.005.002-.008.047-.101.089-.205.17-.296.05-.059.124-.094.186-.144.003-.003.006-.011.01-.014.01-.008.022-.013.033-.02.098-.078.199-.137.3-.187.034-.019.068-.05.102-.064a4.718 4.718 0 0 1-.548-.395c-.023-.022-.059-.037-.084-.06-.012-.013-.018-.03-.032-.044a2.551 2.551 0 0 1-.46-.57c-.026-.05-.04-.115-.062-.17-.046-.106-.1-.208-.127-.329l-.018-.204c-.002-.032-.027-.059-.027-.093 0-.03.022-.058.022-.087a1.31 1.31 0 0 1 .13-.503c.008-.017.005-.035.013-.052a.97.97 0 0 1 .546-.448c.028-.01.051-.005.08-.011.047-.014.092-.027.139-.035-.017-.035-.028-.077-.045-.116l-.019-.052a1.95 1.95 0 0 1-.15-.709v-.037l-.002-.016c0-.006.003-.01.003-.017v-.02c.002-.069.034-.104.044-.167.028-.225.071-.44.152-.6.042-.08.087-.12.132-.184-.025-.038-.048-.093-.078-.12-.015-.015-.037-.026-.056-.037a.87.87 0 0 0-.332-.127h-.014l-.615.31-.07.054-.581-.008-.048-.582c.46-.611.575-.949.627-1.288l.009-.308v-.014c0-.188-.023-.382-.076-.53a.127.127 0 0 1-.014-.03l-.255-.274-.026-.014-.328-.079c-.015 0-.032.01-.05.01a.715.715 0 0 0-.258.079 1.26 1.26 0 0 0-.272.211c-.008.01-.02.016-.028.024l-.172.035-.294.069-.007-.01-.014.002-.112-.183-.147-.214v-.028l.001-.028.005-.3c-.002-.053-.011-.116-.014-.17a4.081 4.081 0 0 0-.065-.587 4.044 4.044 0 0 0-.194-.67c-.025-.055-.044-.107-.069-.147l-.195-.233-.343-.072Zm101.685-4.049-.571 1.383-5.272 12.735h11.304l-5.461-14.118Zm-62.598-4.37H26.715v14.667h23.648V43.192ZM9.983 51.35H1.655v6.496h4.136c.247-.632.835-.993 1.392-.98l.266.023c.454.076.828.286 1.06.607.079.109.118.23.161.35h1.012c.071-.058.147-.11.223-.148.022-.01.045-.012.066-.023-.79-.576-1.13-1.285-1.126-1.876 0-.192.03-.372.092-.532.214-.593.638-.957 1.079-1.095-.025-.075-.05-.151-.081-.235-.144-.44-.3-.93-.304-1.35v-.043c.017-.44.108-.849.352-1.194Zm6.94-3.548c-.066-.007-.352.076-.555.269a1.23 1.23 0 0 0-.231.31.835.835 0 0 0-.044.099c-.057.13-.096.28-.099.465l.002.04c.001.2.04.436.142.717.003.005.005.007.005.011l-.106.465-.007.002-.002.006-.169.024-.29.056c-.006-.005-.013-.007-.02-.01-.013-.004-.02-.006-.03-.012-.185-.078-.388-.153-.493-.15l-.1.03c-.008.01-.012.022-.018.031l-.012.02-.015.028c-.004.019-.018.07-.028.1-.012.048-.028.087-.035.16v.003l-.005.062c-.003.189.124.452.31.711l.07.106c.24.297.542.566.742.728l.216.167.175.452-.006.005.005.005-.106.091-.247.229-.025.003h-.003l-.083.01c-.215.026-.409.045-.589.057l-.23.023-.029.002a1.01 1.01 0 0 0-.358.1c-.011.006-.024.012-.033.02-.03.02-.05.045-.071.071l-.016.04c.051.043.11.07.15.119.055.064.083.134.123.2.044.075.106.147.132.221.01.016.01.03.014.042.005.011.013.022.016.032l.038.19.049.251.021.333a.11.11 0 0 1 .002.024v.01l.008.119-.008.082c.262.279.816.823 1.1.974.011.01.044.026.047.031.059.042.077.11.107.171.12-.037.242-.08.363-.084l.06-.001.025.003c.011-.002.017-.007.03-.007.02 0 .045.013.067.013.177.006.367.048.561.11.042.016.08.01.12.025h.002c.034.014.052.04.085.056.036.019.071.019.107.042.026.016.036.052.059.067.178.137.327.299.4.478.087.205.114.407.126.602.059-.017.104-.052.175-.056l.076-.003c.013 0 .014-.004.02-.004.02 0 .046.02.069.02.121.01.239.03.35.072a.347.347 0 0 1 .049-.017 4.67 4.67 0 0 1-.469-.547c-.023-.035-.043-.07-.068-.106a4.696 4.696 0 0 1-.301-.51c-.014-.028-.027-.047-.04-.074-.025-.05-.055-.141-.081-.206a2.71 2.71 0 0 1-.211-.724c-.01-.06-.033-.113-.04-.176l-.009-.115c-.006-.062-.03-.112-.03-.175 0-.156.032-.32.088-.481.008-.016.01-.031.019-.047.017-.05.027-.1.054-.15a.29.29 0 0 1 .036-.051l.088-.096c.022-.028.03-.065.054-.09.013-.013.031-.014.045-.027a.902.902 0 0 1 .303-.19c.017-.009.034-.023.051-.029l.036-.02c-.14-.232-.242-.475-.242-.731l.003-.022c0-.019.005-.03.005-.044a1.38 1.38 0 0 1 .07-.359 1.03 1.03 0 0 1 .113-.227c.023-.044.046-.086.076-.126a1.71 1.71 0 0 1 .183-.216 1.65 1.65 0 0 1 .157-.134l.014-.014c.02-.13.037-.258.037-.4a2.949 2.949 0 0 0-.242-1.138c-.148-.28-.314-.43-.516-.469h-.003l-.038-.003c-.153-.01-.502.14-.758.241l-.478-.133-.04-.495c.3-.515.388-.877.388-1.094-.005-.211-.062-.29-.134-.362l-.268-.12Zm24.04-3.773c.505 0 1.068.078 1.672.284.864.291 1.536.374 2.027.374.651 0 .987-.146 1.024-.164h.003l.422.014.002.005h.004l.064.125.138.242v.24l.022.003c.205 0 .438-.033.613-.067l.285-.062.38.071.17.346v10.374a.437.437 0 0 1-.289.41c-.028.01-1.04.367-2.435.367-.51 0-1.072-.048-1.656-.18a6.564 6.564 0 0 0-1.487-.171c-1.153 0-2.193.308-3.1.737l-.415-.023-.015-.025c-.887-.415-1.888-.705-3.002-.705-.495 0-1.014.056-1.557.185a7.297 7.297 0 0 1-1.693.198c-1.384-.002-2.337-.378-2.371-.389l-.272-.404V45.44l.172-.347.38-.07.269.065c.168.031.386.064.582.064l.017-.003v-.24l.135-.242.065-.125h.006l.002-.005.424-.014.037.014.177.058c.17.045.44.092.81.092.49 0 1.163-.083 2.027-.374a5.135 5.135 0 0 1 1.671-.284 4.555 4.555 0 0 1 2.346.63 4.562 4.562 0 0 1 2.346-.63Zm-18.347 1.974c-.228.007-.344.064-.451.171-.109.11-.21.31-.26.618v.002l-.027.298.055.29a.43.43 0 0 1-.099.598c-.192.14-.46.1-.6-.09l-.01-.012v-.003l-.203-.31-.106-.036c-.192.007-.259.056-.357.168-.091.11-.169.308-.21.525l-.013.161c-.01.346.205.805.427.923.178.112.25.334.175.529a.438.438 0 0 1-.484.269l-.31-.024a3.685 3.685 0 0 0-.494.033c.042.106.076.212.107.322.085.336.132.657.132.92v.018c.12-.02.242-.039.383-.039.28-.001.6.089.927.24.087.037.174.053.253.106.017.009.034.026.05.037.015.01.032.014.05.025.055.039.09.085.139.127l.068.064a1.478 1.478 0 0 1 .377.699c.014.073.028.138.034.208.114-.045.225-.092.37-.096l.014.001.018.003c.152 0 .294.052.426.118.03.02.065.035.096.055.12.082.233.185.309.302l.01.009c.005.008.007.019.011.026.036.055.076.106.101.16.025.055.033.117.055.172.03.07.05.138.071.208.03.114.056.227.074.349.005.025.013.046.014.073l.018.252c0 .028.009.059.009.088 0 .007-.003.013-.003.02l.003.044c0 .048-.017.084-.019.134-.008.115-.012.23-.034.34.003.007 0 .01 0 .013l-.001.014c-.01.058-.033.103-.042.16-.04.198-.083.392-.145.56-.018.05-.039.095-.059.145l-.009.019.26-.02c.178.001.384.034.592.096.047.014.092.022.138.042.023.008.044.01.064.019.147.065.288.17.413.303.006.01.02.01.026.019.039.048.05.102.078.15.037.055.074.102.102.162a12.745 12.745 0 0 0-.028-1.327c-.025-.435-.096-.709-.175-.823-.078-.108-.148-.172-.474-.224a.435.435 0 0 1-.068-.846c.242-.078.365-.224.472-.502.1-.274.133-.647.133-.983l-.012-.428c-.01-.246-.065-.484-.161-.653a.707.707 0 0 0-.43-.35l-.255-.047c-.064-.002-.21.01-.408.02-.03.002-.051.014-.08.014l-.15-.008h-.034a.434.434 0 0 1-.399-.452.432.432 0 0 1 .438-.416h.048c.076 0 .123-.006.178-.006.283-.017.522-.104.679-.229l.231-.356-.188-.484-.318-.234h-.358a.435.435 0 0 1-.196-.823l.147-.108.045-.264c-.01-.629-.357-1.145-.982-1.232Zm24.307-.034c-.177.028-.371.05-.582.05l-.022-.002v8.557l-.219.378c-.265.141-.52.152-.822.159-.786-.002-1.898-.212-2.94-.344a6.81 6.81 0 0 0-.895-.06c-1.673.01-2.24.677-2.39.889l.006.339a7.832 7.832 0 0 1 2.863-.563c.539 0 1.098.059 1.68.191.509.117 1.005.16 1.463.16.827 0 1.498-.141 1.858-.236Zm-16.562.004v9.522l.281.076c.364.082.882.168 1.498.168.455 0 .96-.048 1.493-.174a7.425 7.425 0 0 1 1.757-.212c1.021 0 1.95.221 2.784.545l.008-.307-.026-.039-.357-.326c-.351-.245-.96-.518-2.007-.52-.269 0-.565.017-.896.06-1.041.133-2.152.343-2.94.345-.3-.007-.558-.018-.822-.16l-.217-.377v-8.556l-.017.002c-.194 0-.374-.022-.539-.047Zm5.91-1.076a4.36 4.36 0 0 0-1.395.238c-.945.32-1.713.42-2.303.42-.313 0-.557-.03-.767-.069l.002.014c.003.033-.02.058-.023.087v8.643c.052.005.1.014.17.013.641.001 1.768-.2 2.831-.338a8.21 8.21 0 0 1 1.006-.068c1.13-.007 1.889.289 2.393.614v-9.04l-.37-.195a3.842 3.842 0 0 0-1.544-.32Zm4.692 0a3.663 3.663 0 0 0-1.913.513v9.041c.502-.325 1.263-.62 2.393-.614.309 0 .642.023 1.005.068 1.064.138 2.19.34 2.83.338l.174-.013v-8.636c-.007-.033-.027-.061-.025-.094v-.014c-.21.04-.452.069-.765.069-.59 0-1.36-.1-2.302-.42a4.375 4.375 0 0 0-1.397-.238Zm-27.81 2.24c-.258.008-.414.1-.563.302-.145.202-.245.532-.243.916 0 .369.143.724.397 1.16l-.059.517-.509.092c-.104-.054-.268-.159-.47-.27a2.822 2.822 0 0 0-.398-.192l-.324.135a.632.632 0 0 0-.138.425l.016.173c.029.155.094.252.198.37.073-.01.132-.025.214-.025l.027.002.04.001c.005 0 .01.005.017.005.214.008.446.046.678.17.016.007.024.02.036.026.17.1.306.232.4.38.013.015.036.023.046.04.026.04.034.084.058.126.025.048.064.084.084.137.002.001.002.003.005.007l.001.002c.014.044.02.082.033.123.087.22.15.44.213.647.018.064.021.13.035.194.007.032.013.064.017.095.022.122.044.237.052.35.147-.054.307-.093.495-.093l.017-.002c.067 0 .127.04.194.047.012-.026.032-.045.046-.068.016-.033.04-.058.058-.089.04-.058.07-.126.118-.176.054-.054.115-.085.175-.129.011-.008.019-.025.034-.033.011-.009.024-.009.034-.018a1.44 1.44 0 0 1 .31-.139c.032-.01.064-.028.096-.035.063-.016.125-.02.187-.027.024-.003.05-.012.073-.014-.006-.008-.014-.014-.018-.022a4.688 4.688 0 0 1-.47-.574c-.23-.323-.412-.693-.426-1.132l.014-.106.005-.068.006-.027.006-.026.013-.115c.018-.055.04-.14.063-.223.01-.028.014-.056.024-.08.006-.015.02-.027.027-.043.05-.116.11-.227.193-.32.005-.006.012-.006.017-.011.003-.005.003-.01.01-.012.057-.064.133-.092.203-.131.045-.027.082-.067.13-.084a.98.98 0 0 1 .37-.069c.05 0 .092.016.134.02a4.461 4.461 0 0 1-.018-.219c0-.02-.013-.046-.013-.065 0-.01.005-.017.005-.025 0-.017-.005-.03-.003-.047 0-.24.051-.452.12-.639l-.088-.034-.059.001-.155.075c-.113.07-.293.207-.563.41l-.486.023-.202-.442.03-.349c0-.3-.078-.508-.17-.622-.096-.112-.2-.17-.4-.176Zm22.627 4.456c1.05.003 1.918.352 1.946.36a.434.434 0 0 1-.317.809l-.122-.044-.36-.104a4.767 4.767 0 0 0-1.147-.153c-.234 0-.47.022-.697.076-.787.186-1.47.307-1.962.312-.236-.013-.428 0-.68-.18a.434.434 0 0 1-.063-.61c.137-.172.372-.192.556-.082l.004-.014.016.004.167.01c.348.005 1.012-.105 1.765-.286.303-.07.604-.098.894-.098Zm5.625-.079c.287.002.593.028.894.101.75.176 1.418.288 1.764.287l.142-.01.04-.006.006.014c.182-.11.416-.09.554.08a.437.437 0 0 1-.062.612c-.25.18-.445.167-.68.176-.492 0-1.174-.124-1.961-.31a3.075 3.075 0 0 0-.697-.074 5 5 0 0 0-1.507.258l-.123.042a.43.43 0 0 1-.562-.246.433.433 0 0 1 .244-.563c.028-.008.896-.358 1.948-.36Zm-5.526-2.239a5.65 5.65 0 0 1 1.787.308.433.433 0 1 1-.294.815l-.112-.036-.332-.09a4.842 4.842 0 0 0-1.05-.129c-.266 0-.536.031-.779.104-.8.24-1.497.381-2 .383-.227-.01-.418-.002-.657-.174a.436.436 0 0 1-.062-.613c.137-.17.371-.19.554-.08l.005-.013.008.001.152.011c.337.003 1.006-.121 1.749-.348a3.632 3.632 0 0 1 1.03-.139Zm5.427-.076c.33 0 .683.034 1.03.138.741.227 1.411.35 1.748.347l.157-.012h.002l.007.015c.183-.11.416-.092.557.078.151.187.122.46-.065.611-.242.176-.433.167-.658.176-.501 0-1.201-.143-1.997-.383a2.766 2.766 0 0 0-.78-.104 4.985 4.985 0 0 0-1.382.22l-.113.037a.434.434 0 0 1-.297-.815c.028-.01.827-.307 1.791-.308Zm-16.003-6.008H1.655v6.585h8.398c.056-.203.14-.39.275-.546.232-.276.597-.447.994-.442.104.001.179.02.244.042-.032-.156-.087-.305-.087-.475 0-.524.126-1.02.4-1.417a1.529 1.529 0 0 1 1.273-.669c.426-.004.826.182 1.074.5.173.216.26.483.31.77.15-.092.311-.171.491-.185l.13-.005c.21-.002.406.053.587.137.017-.016.026-.045.044-.06.372-.326.77-.485 1.134-.492l.1.004c.243.027.522.125.763.347.242.216.417.576.414 1 0 .198-.045.413-.113.638.048-.005.085-.025.134-.026l.203.02c.32.059.566.233.774.445.098-.044.2-.095.289-.103.045-.008.11-.014.168-.02a2.227 2.227 0 0 1-.185-.856l.03-.323c.058-.3.16-.624.381-.906.219-.284.598-.5 1.035-.493.047-.001.087.022.132.027l.002-.04c.073-.42.22-.796.49-1.079.27-.284.665-.437 1.077-.434l.286.02c1.11.155 1.743 1.131 1.734 2.096 0 .163-.028.314-.07.457.212.104.405.243.557.433.073.088.122.2.18.308v-5.258Zm-10.987 6.317v.001h-.002l.002-.001Zm21.653-2.595c.881.003 1.615.253 1.642.261a.435.435 0 0 1-.278.823l-.102-.031-.301-.076a4.76 4.76 0 0 0-.961-.11c-.3 0-.602.04-.858.136-.804.297-1.518.456-2.027.46-.22-.01-.407-.006-.643-.177a.437.437 0 0 1-.062-.613c.14-.168.374-.186.554-.077l.006-.013.008.002.137.01c.324.002 1-.133 1.727-.405a3.29 3.29 0 0 1 1.158-.19Zm5.247-.076c.37 0 .771.045 1.16.188.724.274 1.4.409 1.727.404l.141-.012.003.003.005.014c.181-.112.416-.093.554.078a.435.435 0 0 1-.062.61c-.236.172-.422.168-.641.175-.512-.003-1.225-.161-2.029-.457a2.412 2.412 0 0 0-.858-.135 4.899 4.899 0 0 0-1.265.183l-.1.031a.434.434 0 0 1-.276-.823c.025-.007.76-.258 1.641-.26ZM141.909.555c5.256-.001 10.23 2.113 13.639 5.733 2.97 3.188 4.362 7.03 4.369 11.92 0 4.872-1.96 9.509-5.223 12.573-3.295 3.115-8.238 5.034-12.989 5.031-5.065-.003-9.624-1.71-12.991-4.83-3.727-3.498-5.406-7.415-5.418-12.673.003-4.689 1.753-8.895 5.168-12.323 3.62-3.573 8.27-5.43 13.445-5.43Zm-128.323.786c.295-.015.61-.068.899.008.346.09.676.487.39.821-.136.164-.347.21-.55.244-.71.12-1.43.212-2.128.386-.66.164-1.274.577-1.578 1.263-.31.677-.396 1.525-.4 2.752v9.912h17.833V6.815c-.003-1.11-.048-1.874-.27-2.512-.212-.643-.698-1.106-1.272-1.358-.874-.381-1.84-.328-2.749-.568a.916.916 0 0 1-.366-.162c-.152-.127-.172-.34-.093-.516.219-.485.91-.384 1.33-.358.495.027.987.056 1.482.078 1.1.051 2.645.1 4.626.1a99.3 99.3 0 0 0 4.026-.08c.472-.019.947-.045 1.422-.064.473-.015.951-.098 1.426-.026.16.023.323.068.45.165.132.098.22.26.199.42-.065.504-.748.508-1.124.564-1.323.2-2.93.329-3.444 1.805-.218.64-.265 1.401-.266 2.512v22.51c.001 1.138.037 1.912.254 2.564.206.657.692 1.13 1.285 1.402.87.432 1.831.334 2.74.597.156.044.314.104.426.222.15.162.185.42.08.615-.305.572-1.31.389-1.821.344-1.842-.154-3.695-.184-5.544-.192-1.855-.009-3.714.025-5.565.173-.542.042-1.161.185-1.684-.03-.28-.112-.463-.396-.373-.7.08-.264.32-.373.562-.441.535-.151 1.099-.156 1.644-.252.369-.066.73-.164 1.07-.332.601-.275 1.088-.75 1.296-1.406.215-.652.25-1.426.253-2.563V18.462H10.218v10.864c.002 1.129.05 1.908.28 2.562.223.66.715 1.127 1.313 1.404.346.171.706.27 1.067.335.545.096 1.104.104 1.636.26.174.05.345.147.455.292a.576.576 0 0 1 .118.414c-.102.723-1.175.547-1.662.507-.416-.033-.827-.08-1.242-.103a81.569 81.569 0 0 0-4.653-.124c-2.008 0-3.557.062-4.65.124-.41.023-.822.051-1.23.083-.435.03-.94.135-1.341-.086a.578.578 0 0 1-.207-.838c.191-.28.638-.329.947-.377.39-.062.785-.082 1.177-.152a3.955 3.955 0 0 0 1.067-.332c.6-.275 1.088-.75 1.295-1.406.217-.652.253-1.426.256-2.563V6.816c-.003-1.112-.05-1.874-.27-2.513-.211-.643-.699-1.106-1.271-1.358a4.177 4.177 0 0 0-1.037-.296c-.334-.057-.674-.093-1.01-.135C.959 2.477.61 2.463.34 2.326c-.457-.226-.386-.778.087-.93.5-.164 1.133-.052 1.653-.025 1.815.1 3.633.147 5.45.147 1.981 0 3.525-.048 4.626-.1a87.01 87.01 0 0 0 1.43-.077Zm28.867-.023c.433-.004 3.144.2 7.836.2 3.611 0 8.376-.15 13.054-.15 1.007 0 2.04-.061 3.037.085.362.053.762.159.973.482.109.165.174.397.175.727.005.342-.149 1.269-.15 2.702 0 .546.042 1.092.1 1.634.049.411.144.85.086 1.262-.037.263-.183.506-.45.583-.306.086-.608-.088-.734-.368-.113-.255-.15-.546-.197-.819-.048-.3-.096-.67-.203-1.082a4.233 4.233 0 0 0-.519-1.21c-.714-1.16-1.844-1.845-3.312-2.186-1.474-.352-4.054-.423-6.47-.425h-.703c-.692.002-1.25.007-1.724.05-.537.051-1.11.135-1.385.664-.104.2-.155.422-.186.643-.112.756-.057 11.431-.053 12.578v.089l.821-.055c1.692-.116 2.96-.303 3.989-.698 1.029-.394 1.803-1.042 2.356-1.95.26-.44.424-.883.541-1.312.12-.45.185-.865.246-1.206.066-.4.108-.922.439-1.204.354-.302.795-.043.926.342.151.43.056.968.024 1.414-.101 1.47-.205 2.936-.207 4.412 0 1.42.056 2.84.159 4.26.034.474.073.951.108 1.426.033.452.118.958-.129 1.368-.23.385-.682.305-.886-.063-.197-.357-.245-.773-.343-1.162a7.587 7.587 0 0 0-.482-1.39 4.23 4.23 0 0 0-2.375-2.246 6.651 6.651 0 0 0-.504-.175c-1.498-.45-3.092-.427-4.638-.427l-.045 8.21c.003 1.371.017 2.485.15 3.421.099.702.268 1.313.577 1.839.462.803 1.258 1.322 2.304 1.59 1.053.277 2.401.362 4.216.364 2.219-.002 3.914-.164 5.265-.626 1.355-.457 2.363-1.266 3.04-2.43.282-.479.47-.934.598-1.342.095-.302.171-.608.24-.916.06-.277.1-.594.23-.85.11-.206.311-.385.544-.4.234-.015.414.117.506.327.206.473.158 1.044.153 1.548-.01.938-.079 1.876-.133 2.813-.026.47-.051.936-.06 1.407-.01.42.009.854-.043 1.273-.057.435-.318.664-.743.726a6.44 6.44 0 0 1-.962.055c-.882.001-6.701-.232-17.446-.247h-1.073c-.52 0-1.04.003-1.56.01-1.446.027-2.883.115-4.323.198-.359.019-.737.08-1.088 0-.266-.06-.523-.249-.562-.518-.1-.719.897-.742 1.356-.803.658-.09 1.33-.183 1.944-.463.595-.279 1.084-.752 1.292-1.408.218-.65.252-1.427.253-2.562V6.813c-.001-1.107-.046-1.871-.268-2.509-.211-.642-.697-1.107-1.274-1.36a4.12 4.12 0 0 0-1.032-.293c-.61-.106-1.304-.073-1.883-.311-.272-.112-.478-.43-.298-.704.185-.284.608-.317.905-.318Zm121.83-.244c1.846.087 3.693.166 5.543.21a343.47 343.47 0 0 0 6.872.073c1.299 0 2.597-.005 3.894-.017 3.048-.031 6.135-.104 9.196-.27.549-.032 1.097-.09 1.646-.05.314.023.67.09.876.346.128.162.186.369.214.57.06.429.008.872.008 1.302-.004 1.36-.005 2.72-.005 4.083 0 .381.063.83-.058 1.2a.502.502 0 0 1-.14.231c-.252.223-.577-.008-.7-.249-.246-.479-.243-1.117-.338-1.64-.187-1.014-.513-2.062-1.278-2.796-.682-.655-1.613-.968-2.527-1.136-1.73-.32-3.52-.31-5.277-.29-.469 0-.936 0-1.401.07-.306.044-.646.138-.848.393-.212.266-.28.642-.3.975-.052.856-.029 1.728-.029 2.587v5.335c.004 6.895.017 18.093.07 18.663.064.662.203 1.364.65 1.887.56.66 1.45.947 2.277 1.085h.002c.456.077.92.09 1.38.157.32.049.807.094.976.42.225.438-.21.752-.59.844-.525.126-1.074.014-1.599-.02a87.09 87.09 0 0 0-2.38-.12c-.913-.03-1.826-.049-2.735-.053-1.012-.008-2.022 0-3.036.021-.776.018-1.552.044-2.328.083a65.87 65.87 0 0 0-1.36.084c-.45.033-.932.107-1.38.03-.364-.061-.781-.335-.673-.764.106-.413.655-.476 1-.52.886-.113 1.772-.145 2.604-.504.708-.306 1.273-.818 1.516-1.566.275-.837.25-1.733.253-2.603l.031-22.314c-.009-1.042.014-1.886-.038-2.824-.02-.353-.087-.714-.367-.952-.374-.32-.872-.356-1.337-.382-1.23-.075-2.49-.031-3.72.014-.801.03-1.604.113-2.39.264-.997.193-2.004.52-2.718 1.276-.882.93-1.042 2.2-1.234 3.408-.06.386-.154 1.374-.774 1.202-.31-.084-.347-.427-.368-.7-.028-.332-.017-.667-.014-1.001.02-1.41.003-2.819.003-4.228 0-.462-.1-1.106.216-1.497.256-.32.713-.36 1.092-.38.536-.029 1.087.038 1.624.063Zm-77.315.082c4.192-.003 7.35.664 9.39 2.044 2.03 1.383 3.066 3.429 3.081 6.603-.004 2.365-.695 4.22-2 5.652-.686.75-1.523 1.348-2.423 1.814-1.491.77-3.108 1.106-4.735 1.45l10.683 12.534c.754.884 1.71 1.69 2.78 2.158.735.318 1.559.364 2.349.318.72-.04 1.468-.158 2.134-.448.642-.28 1.175-.74 1.43-1.409.255-.664.308-1.445.313-2.559V6.803c-.005-1.1-.06-1.87-.295-2.51-.227-.645-.719-1.104-1.298-1.36-.327-.147-.687-.23-1.11-.296-.57-.086-1.146-.08-1.722-.145-.34-.039-.945-.129-.928-.59.01-.298.346-.43.59-.495.465-.13.968-.09 1.445-.075.493.019.988.051 1.482.075 1.49.068 2.981.1 4.473.1 1.982 0 3.538-.05 4.65-.102 1.1-.05 1.798-.101 1.936-.1.33.004.674.008.986.131.202.081.439.25.425.495-.034.566-1.023.526-1.406.577-.643.085-1.302.124-1.926.28-.661.163-1.277.577-1.578 1.265-.31.676-.395 1.522-.4 2.75v22.51c.005 1.14.07 1.937.334 2.598.31.79.975 1.206 1.737 1.476.585.207 1.161.285 1.776.353.366.044.786.04 1.125.207a.67.67 0 0 1 .18.123c.284.28.195.71-.146.898-.428.233-1.014.127-1.48.096-.428-.028-.854-.056-1.283-.08a99.046 99.046 0 0 0-6.267-.117c-3.108.03-7.016.141-10.125.141-.824.002-1.625.053-2.347.051-.515.002-.92-.018-1.252-.122-.33-.11-.62-.284-.967-.713L85.797 20.663c-.3-.383-.611-.696-1.025-.882-.665-.299-1.464-.23-2.173-.23l.021 9.764c.004 1.135.038 1.91.255 2.562.105.339.296.648.55.899.664.658 1.646.81 2.535.941.35.053.74.05 1.068.194.28.122.51.428.41.742-.078.252-.318.357-.557.411-.365.08-.783.022-1.152 0-.382-.025-.771-.056-1.147-.08a81.505 81.505 0 0 0-4.651-.124c-2.008 0-3.556.063-4.65.125-.48.028-.956.064-1.434.096-.345.024-.697.067-1.029-.059a.677.677 0 0 1-.315-.225c-.326-.44.1-.836.509-.942.897-.231 1.834-.15 2.682-.572.6-.275 1.088-.75 1.297-1.406.215-.652.249-1.427.253-2.564V6.803c-.003-1.11-.048-1.873-.27-2.51-.212-.645-.697-1.108-1.274-1.36a4.104 4.104 0 0 0-1.032-.296c-.397-.068-.795-.096-1.194-.134-.318-.028-.707-.082-.935-.33a.453.453 0 0 1 .059-.668c.22-.17.529-.198.797-.2.183-.001 1.593.102 4.04.102 3.573 0 6.775-.25 9.533-.25Zm54.737.636c-3.425-.006-6.496 1.538-8.655 4.352-2.16 2.813-3.432 6.862-3.432 11.914 0 5.086 1.248 9.194 3.384 12.06 2.128 2.866 5.176 4.462 8.603 4.457 3.4.005 6.471-1.485 8.638-4.296 2.168-2.81 3.448-6.897 3.448-12.12 0-5.225-1.204-9.297-3.325-12.097-2.119-2.802-5.178-4.278-8.66-4.27Zm-56.733.548c-.972.012-1.455.087-1.856.376l-.073.06a1.188 1.188 0 0 0-.306.491c-.08.246-.117.532-.117.933v14.01l1.164.004c3.418-.004 5.851-.466 7.504-1.72 1.664-1.266 2.335-3.285 2.325-5.94.003-2.723-.633-4.825-2.109-6.223-1.477-1.395-3.66-1.991-6.532-1.991Z"/></svg>